HIERARCHY
ROOT Hips
{
	OFFSET 0.00000 0.00000 0.00000
	CHANNELS 6 Xposition Yposition Zposition Zrotation Yrotation Xrotation 
	JOINT LHipJoint
	{
		OFFSET 0 0 0
		CHANNELS 3 Zrotation Yrotation Xrotation
		JOINT LeftUpLeg
		{
			OFFSET 1.44361 -1.63093 0.70831
			CHANNELS 3 Zrotation Yrotation Xrotation
			JOINT LeftLeg
			{
				OFFSET 2.20103 -6.04728 0.00000
				CHANNELS 3 Zrotation Yrotation Xrotation
				JOINT LeftFoot
				{
					OFFSET 2.54154 -6.98283 0.00000
					CHANNELS 3 Zrotation Yrotation Xrotation
					JOINT LeftToeBase
					{
						OFFSET 0.05971 -0.16406 1.77582
						CHANNELS 3 Zrotation Yrotation Xrotation
						End Site
						{
							OFFSET 0.00000 -0.00000 0.90832
						}
					}
				}
			}
		}
	}
	JOINT RHipJoint
	{
		OFFSET 0 0 0
		CHANNELS 3 Zrotation Yrotation Xrotation
		JOINT RightUpLeg
		{
			OFFSET -1.65838 -1.63093 0.70830
			CHANNELS 3 Zrotation Yrotation Xrotation
			JOINT RightLeg
			{
				OFFSET -2.26926 -6.23475 0.00000
				CHANNELS 3 Zrotation Yrotation Xrotation
				JOINT RightFoot
				{
					OFFSET -2.34808 -6.45129 0.00000
					CHANNELS 3 Zrotation Yrotation Xrotation
					JOINT RightToeBase
					{
						OFFSET -0.18633 -0.51195 1.68539
						CHANNELS 3 Zrotation Yrotation Xrotation
						End Site
						{
							OFFSET -0.00000 -0.00000 0.88927
						}
					}
				}
			}
		}
	}
	JOINT LowerBack
	{
		OFFSET 0 0 0
		CHANNELS 3 Zrotation Yrotation Xrotation
		JOINT Spine
		{
			OFFSET -0.10393 2.01691 0.06920
			CHANNELS 3 Zrotation Yrotation Xrotation
			JOINT Spine1
			{
				OFFSET 0.04092 2.01302 -0.05283
				CHANNELS 3 Zrotation Yrotation Xrotation
				JOINT Neck
				{
					OFFSET 0 0 0
					CHANNELS 3 Zrotation Yrotation Xrotation
					JOINT Neck1
					{
						OFFSET -0.02870 1.58978 -0.03113
						CHANNELS 3 Zrotation Yrotation Xrotation
						JOINT Head
						{
							OFFSET 0.11532 1.54326 -0.29195
							CHANNELS 3 Zrotation Yrotation Xrotation
							End Site
							{
								OFFSET 0.04056 1.59999 -0.09535
							}
						}
					}
				}
				JOINT LeftShoulder
				{
					OFFSET 0 0 0
					CHANNELS 3 Zrotation Yrotation Xrotation
					JOINT LeftArm
					{
						OFFSET 3.30641 1.15764 0.01104
						CHANNELS 3 Zrotation Yrotation Xrotation
						JOINT LeftForeArm
						{
							OFFSET 4.63208 -0.00000 0.00000
							CHANNELS 3 Zrotation Yrotation Xrotation
							JOINT LeftHand
							{
								OFFSET 3.41924 -0.00000 -0.00000
								CHANNELS 3 Zrotation Yrotation Xrotation
								JOINT LeftFingerBase
								{
									OFFSET 0 0 0
									CHANNELS 3 Zrotation Yrotation Xrotation
									JOINT LeftHandIndex1
									{
										OFFSET 0.62537 -0.00000 -0.00000
										CHANNELS 3 Zrotation Yrotation Xrotation
										End Site
										{
											OFFSET 0.50419 -0.00000 -0.00000
										}
									}
								}
								JOINT LThumb
								{
									OFFSET 0 0 0
									CHANNELS 3 Zrotation Yrotation Xrotation
									End Site
									{
										OFFSET 0.51189 -0.00000 0.51189
									}
								}
							}
						}
					}
				}
				JOINT RightShoulder
				{
					OFFSET 0 0 0
					CHANNELS 3 Zrotation Yrotation Xrotation
					JOINT RightArm
					{
						OFFSET -3.78081 1.02180 -0.16609
						CHANNELS 3 Zrotation Yrotation Xrotation
						JOINT RightForeArm
						{
							OFFSET -4.40640 -0.00000 -0.00000
							CHANNELS 3 Zrotation Yrotation Xrotation
							JOINT RightHand
							{
								OFFSET -3.44675 -0.00000 0.00000
								CHANNELS 3 Zrotation Yrotation Xrotation
								JOINT RightFingerBase
								{
									OFFSET 0 0 0
									CHANNELS 3 Zrotation Yrotation Xrotation
									JOINT RightHandIndex1
									{
										OFFSET -0.51367 -0.00000 -0.00000
										CHANNELS 3 Zrotation Yrotation Xrotation
										End Site
										{
											OFFSET -0.41414 -0.00000 -0.00000
										}
									}
								}
								JOINT RThumb
								{
									OFFSET 0 0 0
									CHANNELS 3 Zrotation Yrotation Xrotation
									End Site
									{
										OFFSET -0.42046 -0.00000 0.42046
									}
								}
							}
						}
					}
				}
			}
		}
	}
}
MOTION
Frames: 13
Frame Time: .0083333
9.6556 17.3075 39.9971 0 0 0 0 0 0 -21 0 0 0 0 0 0 0 0 0 0 0 0 0 0 21 0 0 0 0 0 0 0 0 0 0 0 0 0 0 0 0 0 0 0 0 0 0 -16 0 0 21 0 0 11 0 0 0 -8 0 0 0 0 0 0 0 0 0 0 0 0 0 0 0 0 0 0 0 0 8 0 0 0 0 0 0 0 0 0 0 0 0 0 0 0 0 0
9.6556 17.3075 39.9971 178.5810 3.3906 -164.4230 0.0000 0.0000 0.0000 -14.8986 -16.5553 -18.0287 0.9990 6.3607 17.8348 1.2303 6.3237 -24.1157 11.0973 -17.9824 -63.0971 0.0000 0.0000 0.0000 10.9660 12.3765 -22.2767 -0.7629 -5.5780 15.5649 -0.4160 -2.7157 -13.4827 -2.1862 9.2436 -26.5603 -6.2918 2.4510 3.3250 1.2675 3.4567 4.7488 4.7975 1.6343 2.6250 -4.0144 0.6131 -6.3433 7.1819 -4.7422 32.6403 2.6008 -3.0026 11.9670 0.0000 0.0000 0.0000 -88.1584 -6.6263 25.3273 11.4692 -19.0038 -1.9259 -0.0000 -0.0000 25.9626 40.0979 -21.6860 -17.2831 -7.1250 0.0000 -0.0000 6.9527 2.6868 -6.6691 0.0000 0.0000 0.0000 92.2887 -5.7221 -0.4943 -18.6746 29.0123 -4.8720 0.0000 0.0000 10.8443 -30.4104 -36.6636 19.3141 7.1250 -0.0000 -0.0000 5.3995 -70.7120 -3.3160
9.6670 17.3068 39.9807 178.4770 3.4972 -164.2600 0.0000 0.0000 0.0000 -14.9822 -16.4418 -18.0793 0.9848 6.3167 17.7060 1.2389 6.2975 -24.1674 11.1122 -17.9896 -63.1454 0.0000 0.0000 0.0000 10.8593 12.4918 -22.3462 -0.7553 -5.5505 15.4857 -0.4162 -2.6988 -13.4761 -2.1466 9.1651 -26.3130 -6.3401 2.4085 3.3513 1.2988 3.4219 4.9312 4.8638 1.6118 2.8028 -3.8308 0.6899 -6.6246 6.9620 -4.5855 32.7920 2.5040 -2.9208 12.0676 0.0000 -0.0000 0.0000 -88.2415 -6.8380 25.3587 11.7113 -19.3703 -2.0055 -0.0000 -0.0000 26.2295 38.2658 -20.2419 -15.2647 -7.1250 0.0000 -0.0000 6.1289 4.9443 -5.6108 0.0000 -0.0000 0.0000 92.2521 -5.6206 -1.3160 -18.2039 28.4175 -4.6459 0.0000 0.0000 11.4104 -27.7488 -36.5791 17.4072 7.1250 -0.0000 -0.0000 9.1301 -69.7648 -5.4244
9.6760 17.3118 39.9572 178.4910 3.6924 -164.3090 0.0000 0.0000 0.0000 -15.0182 -16.3236 -17.7802 0.9604 6.2400 17.4823 1.2526 6.3563 -24.3147 11.0717 -17.9700 -63.0141 0.0000 0.0000 0.0000 10.9343 12.6150 -22.1579 -0.7478 -5.5236 15.4083 -0.4193 -2.6405 -13.4843 -2.0945 9.0602 -25.9839 -6.2830 2.4411 3.5305 1.3487 3.4859 5.1423 4.8809 1.6464 2.9163 -3.6088 0.7186 -6.9359 6.6426 -4.5405 33.1304 2.3486 -2.9060 12.2582 -0.0000 0.0000 0.0000 -88.3301 -6.8961 24.9171 11.1725 -18.5521 -1.8304 -0.0000 -0.0000 28.4259 40.5217 -21.6959 -17.5354 -7.1250 0.0000 -0.0000 7.2045 2.5418 -6.9337 -0.0000 0.0000 0.0000 92.2193 -5.5520 -2.2721 -17.6545 27.7125 -4.3874 0.0000 0.0000 12.2860 -25.8956 -36.6362 16.1564 7.1250 -0.0000 -0.0000 11.7119 -69.2310 -6.8314
9.6882 17.3109 39.9420 178.6170 3.6782 -163.9590 0.0000 0.0000 0.0000 -14.6965 -16.5114 -18.1094 0.9651 6.2548 17.5256 1.2597 6.4199 -24.4114 11.0546 -17.9617 -62.9586 0.0000 0.0000 0.0000 11.0309 12.8434 -22.4850 -0.7568 -5.5561 15.5018 -0.4218 -2.7176 -13.5653 -2.0581 8.9861 -25.7520 -6.1484 2.3872 3.4132 1.4616 3.4220 5.1692 4.9318 1.6127 3.0180 -3.5652 0.7796 -7.1209 6.5440 -4.4972 33.4122 2.3087 -2.8969 12.4085 -0.0000 0.0000 0.0000 -88.4476 -6.8200 24.4292 10.7475 -17.9002 -1.6975 -0.0000 -0.0000 30.2985 42.1724 -21.9062 -18.6736 -7.1250 0.0000 -0.0000 8.1416 1.7465 -7.9713 -0.0000 0.0000 0.0000 92.1082 -5.5565 -3.0690 -17.0330 26.9013 -4.1023 0.0000 0.0000 13.1585 -25.1278 -36.7782 15.6855 7.1250 -0.0000 -0.0000 12.8848 -69.1263 -7.4931
9.7015 17.3082 39.9294 178.7210 3.5811 -163.5750 0.0000 0.0000 0.0000 -14.3564 -16.6977 -18.5587 0.9770 6.2923 17.6348 1.2532 6.5499 -24.4441 11.1263 -17.9963 -63.1911 0.0000 0.0000 0.0000 11.0817 13.0339 -22.9748 -0.7847 -5.6553 15.7874 -0.4286 -2.7473 -13.6792 -2.0676 9.0055 -25.8125 -6.0148 2.3075 3.2739 1.5570 3.3195 5.1574 4.9653 1.5600 3.0973 -3.4777 0.8497 -7.2254 6.4599 -4.4861 33.7284 2.2621 -2.9036 12.5595 0.0000 -0.0000 0.0000 -88.5456 -6.6529 23.6294 10.4225 -17.3977 -1.5990 -0.0000 -0.0000 32.1852 42.8478 -20.7554 -18.1962 -7.1250 0.0000 -0.0000 8.7971 2.9227 -8.4386 0.0000 -0.0000 0.0000 92.0496 -5.5765 -3.8286 -16.4650 26.1470 -3.8486 0.0000 0.0000 13.7178 -24.8781 -36.7294 15.4998 7.1250 -0.0000 -0.0000 13.1588 -69.0006 -7.6173
9.7108 17.3129 39.9014 178.6100 3.6778 -163.6260 0.0000 0.0000 0.0000 -14.5378 -16.5604 -18.2788 0.9517 6.2125 17.4021 1.2615 6.5381 -24.5017 11.1334 -17.9998 -63.2142 0.0000 0.0000 0.0000 11.0171 13.0349 -22.9657 -0.8083 -5.7376 16.0249 -0.4423 -2.5407 -13.7485 -2.0629 8.9958 -25.7822 -6.0895 2.2900 3.3910 1.5777 3.3100 5.3015 5.0289 1.5533 3.1808 -3.3663 0.9045 -7.2861 6.3372 -4.4441 33.9166 2.2004 -2.8913 12.6445 -0.0000 -0.0000 0.0000 -88.6849 -6.4641 22.9450 10.2828 -17.1807 -1.5574 -0.0000 -0.0000 33.3623 43.0611 -19.8342 -17.5927 -7.1250 0.0000 -0.0000 9.1265 3.9894 -8.5810 -0.0000 -0.0000 0.0000 92.0856 -5.5501 -4.7248 -15.9906 25.5079 -3.6419 0.0000 0.0000 14.4634 -25.1614 -36.9404 15.7648 7.1250 -0.0000 -0.0000 13.0216 -69.2935 -7.6224
9.7188 17.3148 39.8744 178.4420 3.5735 -163.4680 0.0000 0.0000 0.0000 -14.7164 -16.5851 -18.2596 0.9354 6.1605 17.2507 1.2627 6.4453 -24.4514 11.1166 -17.9917 -63.1597 0.0000 0.0000 0.0000 10.8480 12.9493 -23.0917 -0.8183 -5.7721 16.1246 -0.4508 -2.4833 -13.8339 -2.0447 8.9586 -25.6658 -6.3735 1.9377 3.3068 1.8165 2.8479 5.3912 5.4562 1.3017 3.3638 -3.7686 1.1574 -7.3609 6.1416 -3.9294 34.0256 2.2625 -2.7387 12.6696 0.0000 0.0000 0.0000 -89.3159 -6.3118 21.5699 10.2819 -17.1793 -1.5572 -0.0000 -0.0000 33.7841 43.1760 -20.3750 -18.0908 -7.1250 0.0000 -0.0000 9.0769 3.2814 -8.6535 0.0000 0.0000 0.0000 91.5342 -5.4074 -4.9517 -15.4906 24.8251 -3.4293 0.0000 0.0000 15.5900 -25.2450 -37.4303 15.9917 7.1250 -0.0000 -0.0000 13.4755 -69.7914 -8.0414
9.7302 17.3176 39.8424 178.4500 3.7327 -163.4590 0.0000 0.0000 0.0000 -14.7482 -16.2897 -17.9788 0.9027 6.0550 16.9440 1.2629 6.4606 -24.4630 11.1291 -17.9977 -63.2002 0.0000 0.0000 0.0000 10.9338 13.0923 -22.9362 -0.8195 -5.7763 16.1367 -0.4593 -2.4126 -13.9101 -2.0397 8.9483 -25.6339 -6.1395 2.2065 3.3534 1.6259 3.2160 5.4291 5.1162 1.4998 3.3446 -3.2056 0.9336 -7.3873 6.2186 -4.4405 34.0647 2.1258 -2.8853 12.7238 0.0000 -0.0000 0.0000 -88.9352 -6.2173 22.3155 10.2632 -17.1502 -1.5516 -0.0000 -0.0000 33.6075 43.4632 -21.0025 -18.7616 -7.1250 0.0000 -0.0000 9.1081 2.4078 -8.8311 0.0000 -0.0000 0.0000 92.2577 -5.4325 -6.8488 -15.1334 24.3317 -3.2807 0.0000 0.0000 16.8849 -25.0209 -37.5716 15.8865 7.1250 -0.0000 -0.0000 13.9418 -69.8546 -8.3429
9.7427 17.3170 39.8171 178.4770 3.8745 -163.3650 0.0000 0.0000 0.0000 -14.6542 -16.1936 -17.8789 0.8818 5.9862 16.7445 1.2734 6.5264 -24.5877 11.1308 -17.9985 -63.2056 0.0000 0.0000 0.0000 10.9389 13.3617 -22.9359 -0.8248 -5.7945 16.1893 -0.4702 -2.4029 -14.0523 -1.9101 8.6762 -24.7875 -6.2967 1.9557 3.3737 1.8457 2.8857 5.5139 5.4441 1.3224 3.4520 -3.6910 1.1646 -7.6706 6.2120 -4.0008 34.2348 2.2668 -2.7495 12.8313 0.0000 0.0000 0.0000 -89.4903 -6.1364 20.8924 10.1892 -17.0349 -1.5299 -0.0000 -0.0000 34.4439 43.7343 -19.3326 -17.5750 -7.1250 0.0000 -0.0000 9.6412 4.3922 -9.0055 0.0000 0.0000 0.0000 91.7286 -5.2194 -6.9714 -14.6213 23.6159 -3.0726 0.0000 0.0000 18.0053 -25.3786 -37.5284 16.1177 7.1250 -0.0000 -0.0000 13.4134 -69.9284 -8.0448
9.7555 17.3168 39.7941 178.4940 3.8856 -163.1800 0.0000 0.0000 0.0000 -14.5355 -16.2381 -17.9666 0.8769 5.9702 16.6979 1.2839 6.5281 -24.6711 11.1202 -17.9934 -63.1711 0.0000 0.0000 0.0000 10.9321 13.6000 -23.0245 -0.8300 -5.8123 16.2409 -0.4821 -2.4203 -14.2217 -1.7532 8.3318 -23.7265 -6.2928 1.8565 3.3846 1.9312 2.7291 5.3589 5.5287 1.2452 3.3001 -3.7487 1.2882 -7.3227 6.1589 -3.8728 34.2854 2.2721 -2.7344 12.7680 -0.0000 -0.0000 0.0000 -89.7174 -5.7863 20.1752 10.1073 -16.9073 -1.5060 -0.0000 -0.0000 34.9028 44.2551 -20.4207 -18.7757 -7.1250 0.0000 -0.0000 9.7093 2.8530 -9.3512 -0.0000 -0.0000 0.0000 91.6613 -5.5772 -7.3644 -14.3031 23.1664 -2.9463 0.0000 0.0000 18.6270 -26.0606 -37.6870 16.6453 7.1250 -0.0000 -0.0000 12.6826 -70.3018 -7.7069
9.7674 17.3215 39.7586 178.6340 4.0750 -163.1960 0.0000 0.0000 0.0000 -14.4303 -16.0174 -17.6796 0.8564 5.9015 16.4989 1.2974 6.5274 -24.7765 11.0991 -17.9832 -63.1030 0.0000 0.0000 0.0000 11.1951 13.7989 -22.7837 -0.8278 -5.8045 16.2184 -0.4917 -2.2643 -14.2643 -1.7392 8.3003 -23.6301 -6.1725 1.8182 3.4650 2.0013 2.6834 5.4227 5.5340 1.2265 3.3296 -3.7883 1.3488 -7.5682 6.0768 -3.7769 34.4799 2.2595 -2.7066 12.8960 0.0000 0.0000 0.0000 -89.8513 -5.7623 19.7975 10.1040 -16.9020 -1.5050 -0.0000 -0.0000 34.5718 43.6296 -18.9109 -17.1687 -7.1250 0.0000 -0.0000 9.6703 4.9555 -8.9296 0.0000 0.0000 0.0000 91.6280 -5.6038 -7.7158 -14.0472 22.8022 -2.8464 0.0000 0.0000 19.1245 -26.3542 -37.7221 16.8624 7.1250 -0.0000 -0.0000 12.3238 -70.4315 -7.5220
9.7810 17.3240 39.7242 178.7550 4.2686 -163.1760 0.0000 0.0000 0.0000 -14.3166 -15.8290 -17.4399 0.8359 5.8322 16.2984 1.3085 6.5581 -24.8822 11.0697 -17.9690 -63.0078 0.0000 0.0000 0.0000 11.4063 14.0379 -22.6112 -0.8277 -5.8045 16.2182 -0.4942 -2.1508 -14.2362 -1.7881 8.4101 -23.9668 -5.8625 2.0041 3.5533 1.8860 2.9331 5.4204 5.2284 1.3681 3.2581 -3.5450 1.1974 -7.5956 6.2352 -4.1196 34.4599 2.2329 -2.8066 12.9194 -0.0000 -0.0000 0.0000 -89.5680 -5.7653 20.5698 10.1486 -16.9717 -1.5180 -0.0000 -0.0000 33.4245 43.4830 -21.4290 -19.1110 -7.1250 0.0000 -0.0000 9.0235 1.8755 -8.8347 -0.0000 -0.0000 0.0000 92.1147 -5.7289 -8.6857 -13.8819 22.5657 -2.7826 0.0000 0.0000 19.8804 -26.2203 -37.5541 16.7089 7.1250 -0.0000 -0.0000 12.3074 -70.2255 -7.4556
